<?xml version="1.0" encoding="utf-8"?>
<!-- Generator: Adobe Illustrator 15.1.0, SVG Export Plug-In . SVG Version: 6.00 Build 0)  -->
<!DOCTYPE svg PUBLIC "-//W3C//DTD SVG 1.1//EN" "http://www.w3.org/Graphics/SVG/1.1/DTD/svg11.dtd">
<svg version="1.1" id="Layer_1" xmlns="http://www.w3.org/2000/svg" xmlns:xlink="http://www.w3.org/1999/xlink" x="0px" y="0px"
	 width="552.573px" height="128.294px" viewBox="0 0 552.573 128.294" enable-background="new 0 0 552.573 128.294"
	 xml:space="preserve">
<g>
	<path fill="#5bc0de" d="M59.126,83.896c0,0,0.505-18.977-9.913-27.762c0,0,9.407-8.433,8.513-27.325c0,0,0.35-24.512-27.056-26.512
		H0v111h33.704C33.704,113.296,60.409,114.8,59.126,83.896z M21,20.675c16,0,16.327,11.622,16.327,11.622
		C37.327,48.781,21,45.632,21,45.632V20.675z M38.726,81.55C38.376,97.294,21,94.378,21,94.378V66.506
		C41,66.506,38.726,81.55,38.726,81.55z"/>
	<path fill="#5bc0de" d="M119.467,94.591l-0.01-47.21c0,0-0.077-19.592-26.434-19.592c-26.354,0-26.441,18.12-26.441,18.12v47.886
		c0,0,0.086,21.134,26.209,21.134C119.381,114.929,119.467,94.591,119.467,94.591z M100.347,49.713l-0.005,42.217
		c0,0-0.266,5.947-7.381,5.947c-7.812,0-7.378-5.947-7.378-5.947V49.713c0,0-0.201-5.015,7.378-5.015
		C100.076,44.699,100.347,49.713,100.347,49.713z"/>
	<path fill="#5bc0de" d="M180.446,94.591l-0.031-47.21c0,0,0.372-19.592-25.986-19.592c-26.354,0-26.223,18.12-26.223,18.12v47.886
		c0,0-0.132,21.134,25.991,21.134C180.787,114.929,180.446,94.591,180.446,94.591z M161.535,49.713L161.53,91.93
		c0,0-0.048,5.947-7.163,5.947c-7.812,0-7.16-5.947-7.16-5.947V49.713c0,0-0.419-5.015,7.16-5.015
		C161.482,44.699,161.535,49.713,161.535,49.713z"/>
	<path fill="#5bc0de" d="M370.831,94.591l-0.35-47.21c0,0,0.164-19.592-26.193-19.592c-26.354,0-26.54,18.12-26.54,18.12v47.886
		c0,0,0.186,21.134,26.308,21.134C370.645,114.929,370.831,94.591,370.831,94.591z M351.709,49.713l-0.005,42.217
		c0,0-0.365,5.947-7.48,5.947c-7.812,0-7.477-5.947-7.477-5.947V49.713c0,0-0.102-5.015,7.477-5.015
		C351.339,44.699,351.709,49.713,351.709,49.713z"/>
	<path fill="#5bc0de" d="M189.747,30.02v83.277h18v-60.89c0,0,15-12.944,15-1.049v61.939h17v-60.54c0,0,13-13.819,13-1.399
		s0,61.939,0,61.939h19V40.337c0,0,0.178-11.545-12.811-11.545c0,0-10.952-1.198-19.147,6.997c0,0-11.042-16.268-31.042-1.05v-4.723
		L189.747,30.02z"/>
	<polygon fill="#5bc0de" points="264.703,20.296 264.703,2.296 324.704,2.296 324.704,20.296 305.704,20.296 305.704,113.296 
		284.704,113.296 284.704,20.296 	"/>
	<polygon fill="#5bc0de" points="375.333,30.296 391.344,113.296 407.357,113.296 413.457,75.026 420.574,113.296 437.856,113.296 
		452.343,30.296 433.79,30.296 427.944,67.913 421.335,30.296 406.594,30.296 400.114,68.485 393.886,30.296 	"/>
	<path fill="#5bc0de" d="M459.792,30.296v83h20v-60.4c0,0,13-13.398,13-1.552v61.953h19V41.459c0,0,0.062-12.771-14.256-12.771
		c0,0-10.744-0.224-18.744,7.243v-5.635H459.792z"/>
	<polygon fill="#5bc0de" points="526.125,0.021 530.495,89.464 541.875,86.791 545.458,0 	"/>
	<polygon fill="#5bc0de" points="552.573,113.281 542.161,97.972 530.567,100.639 518.926,113.264 520.71,114.515 523.657,114.186 
		523.668,120.85 535.792,128.294 549.562,123.567 549.562,114.567 	"/>
</g>
</svg>
